<?xml version="1.0" encoding="UTF-8" standalone="no"?>
<svg
   xmlns:dc="http://purl.org/dc/elements/1.1/"
   xmlns:cc="http://creativecommons.org/ns#"
   xmlns:rdf="http://www.w3.org/1999/02/22-rdf-syntax-ns#"
   xmlns:svg="http://www.w3.org/2000/svg"
   xmlns="http://www.w3.org/2000/svg"
   xmlns:sodipodi="http://sodipodi.sourceforge.net/DTD/sodipodi-0.dtd"
   xmlns:inkscape="http://www.inkscape.org/namespaces/inkscape"
   version="1.1"
   id="Layer_1"
   x="0px"
   y="0px"
   width="1400"
   height="560"
   viewBox="0 0 1400 559.99998"
   enable-background="new 0 0 212.118 65.883"
   xml:space="preserve"
   inkscape:version="0.91 r13725"
   sodipodi:docname="logo_th_1400x560.svg"
   inkscape:export-filename="/Users/bussonniermatthias/dev/binderify/images/logo_th_1400x560.png"
   inkscape:export-xdpi="90"
   inkscape:export-ydpi="90"><metadata
     id="metadata35"><rdf:RDF><cc:Work
         rdf:about=""><dc:format>image/svg+xml</dc:format><dc:type
           rdf:resource="http://purl.org/dc/dcmitype/StillImage" /><dc:title></dc:title></cc:Work></rdf:RDF></metadata><defs
     id="defs33" /><sodipodi:namedview
     pagecolor="#ffffff"
     bordercolor="#666666"
     borderopacity="1"
     objecttolerance="10"
     gridtolerance="10"
     guidetolerance="10"
     inkscape:pageopacity="0"
     inkscape:pageshadow="2"
     inkscape:window-width="1241"
     inkscape:window-height="846"
     id="namedview31"
     showgrid="false"
     inkscape:zoom="0.36536268"
     inkscape:cx="365.10628"
     inkscape:cy="-20.848446"
     inkscape:window-x="0"
     inkscape:window-y="0"
     inkscape:window-maximized="0"
     inkscape:current-layer="Layer_1"
     showguides="true"
     inkscape:guide-bbox="true"><sodipodi:guide
       position="0,0"
       orientation="1,0"
       id="guide4167"
       inkscape:label=""
       inkscape:color="rgb(0,0,255)" /><sodipodi:guide
       position="1400,0"
       orientation="1,0"
       id="guide4169"
       inkscape:label=""
       inkscape:color="rgb(0,0,255)" /><sodipodi:guide
       position="0,559.99998"
       orientation="0,1"
       id="guide4171"
       inkscape:label=""
       inkscape:color="rgb(0,0,255)" /><sodipodi:guide
       position="0,0"
       orientation="0,1"
       id="guide4173"
       inkscape:label=""
       inkscape:color="rgb(0,0,255)" /></sodipodi:namedview><rect
     style="opacity:1;fill:#f3f3f3;fill-opacity:1;stroke:none;stroke-width:20;stroke-linecap:round;stroke-linejoin:round;stroke-miterlimit:4;stroke-dasharray:20, 960;stroke-dashoffset:0;stroke-opacity:1"
     id="rect4163"
     width="1400"
     height="560"
     x="0"
     y="5.6843419e-14" /><g
     id="g7"
     transform="matrix(5.5842287,0,0,5.5842287,273.73333,207.13511)"><path
       d="m 50.751,48.727 0,-36.255 7.251,0 0,17.547 c 1.885,-2.32 4.544,-3.094 7.299,-3.094 6.042,0 10.586,5.269 10.586,11.167 0,5.898 -4.543,11.118 -10.585,11.118 -2.755,0 -5.849,-0.87 -7.299,-3.046 l 0,2.562 -7.252,0 z m 12.327,-5.318 c 2.9,0 5.076,-2.514 5.076,-5.317 0,-2.803 -2.175,-5.317 -5.076,-5.317 -2.901,0 -5.076,2.514 -5.076,5.317 0,2.803 2.176,5.317 5.076,5.317 z"
       id="path9"
       inkscape:connector-curvature="0"
       style="fill:#545454" /><path
       d="m 84.35,15.855 c 2.32,0 4.254,1.885 4.254,4.254 0,2.32 -1.934,4.254 -4.254,4.254 -2.369,0 -4.254,-1.934 -4.254,-4.254 0,-2.368 1.885,-4.254 4.254,-4.254 z m -3.626,32.872 0,-21.318 7.251,0 0,21.318 -7.251,0 z"
       id="path11"
       inkscape:connector-curvature="0"
       style="fill:#545454" /><path
       d="m 115.819,48.727 -7.25,0 0,-12.085 c 0,-2.514 -0.967,-3.867 -3.239,-3.867 -2.272,0 -4.061,2.417 -4.061,5.317 l 0,10.635 -7.251,0 0,-21.318 7.251,0 0,2.61 c 1.45,-1.837 3.722,-3.094 6.526,-3.094 5.704,0 8.024,3.916 8.024,9.716 l 0,12.086 z"
       id="path13"
       inkscape:connector-curvature="0"
       style="fill:#545454" /><path
       d="m 144.826,48.727 -7.251,0 0,-2.562 c -1.45,2.176 -4.592,3.046 -7.299,3.046 -6.043,0 -10.587,-5.221 -10.587,-11.118 0,-5.897 4.544,-11.167 10.587,-11.167 2.707,0 5.414,0.773 7.299,3.094 l 0,-17.548 7.251,0 0,36.255 z M 132.499,32.774 c -2.9,0 -5.075,2.514 -5.075,5.317 0,2.803 2.175,5.317 5.075,5.317 2.9,0 5.076,-2.514 5.076,-5.317 0,-2.803 -2.176,-5.317 -5.076,-5.317 z"
       id="path15"
       inkscape:connector-curvature="0"
       style="fill:#545454" /><path
       d="m 173.639,38.962 -16.532,0 c 0,2.466 1.74,5.075 4.592,5.075 2.562,0 4.158,-1.691 4.206,-3.238 l 7.396,0 c -1.256,5.607 -5.801,8.411 -11.456,8.411 -7.348,0 -12.423,-4.351 -12.423,-11.118 0,-6.671 5.269,-11.167 12.423,-11.167 6.478,0 11.843,3.867 11.843,10.683 -10e-4,0.435 -0.049,0.919 -0.049,1.354 z m -6.913,-3.432 c 0,0 -0.338,-3.964 -4.736,-3.964 -4.545,0 -4.786,3.964 -4.786,3.964 l 9.522,0 z"
       id="path17"
       inkscape:connector-curvature="0"
       style="fill:#545454" /><path
       d="m 185.532,38.092 0,10.635 -7.251,0 0,-21.318 7.251,0 0,2.61 c 1.111,-1.595 2.949,-3.094 5.607,-3.094 0.629,0 1.596,0.193 2.176,0.483 l 0,6.574 -0.098,0 c -0.725,-0.87 -1.788,-1.208 -2.9,-1.208 -2.707,0 -4.785,2.756 -4.785,5.318 z"
       id="path19"
       inkscape:connector-curvature="0"
       style="fill:#545454" /></g><g
     id="g4209"
     transform="matrix(1.9545689,0,0,1.9545689,-527.66085,-488.0206)"><circle
       style="fill:none;stroke:#f5a252;stroke-width:26.99527931;stroke-miterlimit:10"
       id="circle21"
       r="53.28471"
       cy="340.81598"
       cx="429.41602"
       stroke-miterlimit="10" /><path
       style="fill:none;stroke:#579aca;stroke-width:26.99527931;stroke-miterlimit:10"
       inkscape:connector-curvature="0"
       id="path27"
       d="m 386.51241,412.83575 c 4.23843,-5.75734 9.71655,-10.76079 16.31153,-14.55807 25.4976,-14.68653 58.08157,-5.91928 72.7681,19.58389"
       stroke-miterlimit="10" /><g
       id="g4204"><circle
         stroke-miterlimit="10"
         cx="429.41602"
         cy="444.4592"
         r="53.290295"
         id="circle23"
         style="fill:none;stroke:#579aca;stroke-width:26.99527931;stroke-miterlimit:10" /><circle
         stroke-miterlimit="10"
         cx="377.32639"
         cy="393.0285"
         r="53.290295"
         id="circle25"
         style="fill:none;stroke:#e66581;stroke-width:26.99527931;stroke-miterlimit:10" /><path
         stroke-miterlimit="10"
         d="m 383.24005,367.40806 c -14.68651,-25.49758 -5.92486,-58.08157 19.58389,-72.77367 25.50318,-14.68653 58.08157,-5.91369 72.7681,19.58947"
         id="path29"
         inkscape:connector-curvature="0"
         style="fill:none;stroke:#f5a252;stroke-width:26.99527931;stroke-miterlimit:10" /></g></g><g
     id="g4185"
     transform="matrix(1.1500894,0,0,1.1500894,620.91679,-16.016933)"><path
       d="m 332.45298,158.91226 14.56528,37.96057 15.26826,-37.96057 16.02779,0 15.26825,39.08532 15.40885,-39.08532 28.25953,0 -34.95151,72.12507 -17.01196,0 -15.26824,-39.50711 -14.42468,39.50711 -17.29316,0 -34.24854,-72.12507 z"
       style="font-style:normal;font-variant:normal;font-weight:bold;font-stretch:normal;font-size:103.08018494px;line-height:125%;font-family:Futura;-inkscape-font-specification:'Futura, Bold';text-align:center;letter-spacing:0px;word-spacing:0px;writing-mode:lr-tb;text-anchor:middle;fill:#545454;fill-opacity:1;stroke:none;stroke-width:1px;stroke-linecap:butt;stroke-linejoin:miter;stroke-opacity:1"
       id="path4240"
       inkscape:connector-curvature="0"
       sodipodi:nodetypes="cccccccccccccc" /><path
       style="font-style:normal;font-variant:normal;font-weight:bold;font-stretch:normal;font-size:103.08018494px;line-height:125%;font-family:Futura;-inkscape-font-specification:'Futura, Bold';text-align:center;letter-spacing:0px;word-spacing:0px;writing-mode:lr-tb;text-anchor:middle;fill:#545454;fill-opacity:1;stroke:none;stroke-width:1px;stroke-linecap:butt;stroke-linejoin:miter;stroke-opacity:1"
       d="m 476.92612,158.91226 0,72.12507 -25.44765,0 0,-72.12507 25.44765,0 z"
       id="path4252"
       inkscape:connector-curvature="0" /><path
       style="font-style:normal;font-variant:normal;font-weight:bold;font-stretch:normal;font-size:103.08018494px;line-height:125%;font-family:Futura;-inkscape-font-specification:'Futura, Bold';text-align:center;letter-spacing:0px;word-spacing:0px;writing-mode:lr-tb;text-anchor:middle;fill:#e66581;fill-opacity:1;stroke:none;stroke-width:1px;stroke-linecap:butt;stroke-linejoin:miter;stroke-opacity:1"
       d="m 449.79134,131.2151 q 0,-2.95249 1.12476,-5.4832 1.12475,-2.6713 3.09309,-4.63962 1.96832,-1.96833 4.49902,-3.09309 2.67131,-1.12476 5.62379,-1.12476 2.95249,0 5.4832,1.12476 2.67129,1.12476 4.63962,3.09309 1.96833,1.96832 3.09309,4.63962 1.12475,2.53071 1.12475,5.4832 0,2.95248 -1.12475,5.62379 -1.12476,2.5307 -3.09309,4.49902 -1.96833,1.96834 -4.63962,3.09309 -2.53071,1.12476 -5.4832,1.12476 -2.95248,0 -5.62379,-1.12476 -2.5307,-1.12475 -4.49902,-3.09309 -1.96834,-1.96832 -3.09309,-4.49902 -1.12476,-2.67131 -1.12476,-5.62379 z"
       id="path4242"
       inkscape:connector-curvature="0" /><path
       d="m 522.71607,180.14205 0,50.89528 -25.44764,0 0,-50.89528 -8.4357,0 0,-21.22979 8.4357,0 0,-21.65159 25.44764,0 0,21.65159 14.48125,0 0,21.22979 -14.48125,0 z"
       style="font-style:normal;font-variant:normal;font-weight:bold;font-stretch:normal;font-size:103.08018494px;line-height:125%;font-family:Futura;-inkscape-font-specification:'Futura, Bold';text-align:center;letter-spacing:0px;word-spacing:0px;writing-mode:lr-tb;text-anchor:middle;fill:#545454;fill-opacity:1;stroke:none;stroke-width:1px;stroke-linecap:butt;stroke-linejoin:miter;stroke-opacity:1"
       id="path4244"
       inkscape:connector-curvature="0" /><path
       d="m 550.05953,114.34373 25.44764,0 0,53.70718 q 5.20201,-6.32676 10.54459,-8.43568 5.34261,-2.24953 12.51294,-2.24953 13.63769,0 20.52683,7.59212 7.02974,7.45152 7.02974,20.24564 l 0,45.83387 -25.44765,0 0,-36.41403 q 0,-5.48318 -0.84357,-8.85746 -0.84357,-3.37427 -2.81189,-5.20201 -3.37428,-2.95248 -8.15449,-2.95248 -6.46736,0 -9.98224,3.93665 -3.37426,3.79605 -3.37426,10.96638 l 0,38.52295 -25.44764,0 0,-116.6936 z"
       style="font-style:normal;font-variant:normal;font-weight:bold;font-stretch:normal;font-size:103.08018494px;line-height:125%;font-family:Futura;-inkscape-font-specification:'Futura, Bold';text-align:center;letter-spacing:0px;word-spacing:0px;writing-mode:lr-tb;text-anchor:middle;fill:#545454;fill-opacity:1;stroke:none;stroke-width:1px;stroke-linecap:butt;stroke-linejoin:miter;stroke-opacity:1"
       id="path4246"
       inkscape:connector-curvature="0" /></g><g
     id="g4179"
     transform="matrix(1.1500894,0,0,1.1500894,227.90237,68.894729)"><path
       d="m 440.60656,19.442302 q 0,-3.374266 -1.26536,-6.326764 -1.12476,-3.093078 -3.37427,-5.3425887 -2.24951,-2.2495249 -5.3426,-3.5148749 -2.95249,-1.4059445 -6.46736,-1.4059445 -3.37427,0 -6.32675,1.26535 -2.9525,1.2653501 -5.20201,3.5148749 -2.10892,2.2495112 -3.51487,5.3425892 -1.26535,2.952497 -1.26535,6.326764 0,3.37428 1.26535,6.326764 1.26536,2.952483 3.51487,5.202008 2.24951,2.108917 5.20201,3.514861 3.09308,1.26535 6.46734,1.26535 3.37428,0 6.32677,-1.26535 2.95249,-1.26535 5.06141,-3.514861 2.24951,-2.249525 3.51486,-5.202008 1.40596,-2.952484 1.40596,-6.18617 z m -32.0556,71.843901 -25.44764,0 0,-108.117337 25.44764,0 0,8.0139108 q 8.15449,-10.2634218 22.21396,-10.2634218 7.73271,0 14.34066,3.093091 6.74855,2.952484 11.66937,8.154492 4.92081,5.2019946 7.59211,12.2317308 2.81189,7.0297362 2.81189,15.0436332 0,8.013898 -2.81189,14.903039 -2.6713,6.889142 -7.59211,12.09115 -4.78023,5.201995 -11.38818,8.154492 -6.60795,2.952484 -14.34066,2.952484 -13.49708,0 -22.49515,-9.279248 l 0,43.021984 z"
       style="font-style:normal;font-variant:normal;font-weight:bold;font-stretch:normal;font-size:103.08018494px;line-height:125%;font-family:Futura;-inkscape-font-specification:'Futura, Bold';text-align:center;letter-spacing:0px;word-spacing:0px;writing-mode:lr-tb;text-anchor:middle;fill:#545454;fill-opacity:1;stroke:none;stroke-width:1px;stroke-linecap:butt;stroke-linejoin:miter;stroke-opacity:1"
       id="path4234"
       inkscape:connector-curvature="0" /><path
       d="m 534.40738,8.7571104 q -1.26535,-5.3426027 -5.202,-8.57627511 -3.93666,-3.23368599 -9.56045,-3.23368599 -5.90496,0 -9.70103,3.09309154 -3.65545,3.09307796 -4.63961,8.71686956 l 29.10309,0 z M 504.6013,23.519555 q 0,16.449578 15.46542,16.449578 8.2951,0 12.51293,-6.748547 l 24.60407,0 q -7.45152,24.744664 -37.2576,24.744664 -9.13865,0 -16.73076,-2.671295 -7.59212,-2.811889 -13.0753,-7.873302 -5.34261,-5.061414 -8.2951,-12.09115 -2.95249,-7.029737 -2.95249,-15.746606 0,-8.998059 2.81189,-16.1683893 2.81191,-7.3109251 8.0139,-12.3723253 5.20201,-5.0614144 12.51293,-7.7327224 7.45152,-2.811889 16.73077,-2.811889 9.13867,0 16.44958,2.811889 7.31092,2.671308 12.37234,7.8733168 5.06141,5.2019947 7.73271,12.7941087 2.67129,7.4515195 2.67129,16.8713615 l 0,2.671308 -53.56658,0 z"
       style="font-style:normal;font-variant:normal;font-weight:bold;font-stretch:normal;font-size:103.08018494px;line-height:125%;font-family:Futura;-inkscape-font-specification:'Futura, Bold';text-align:center;letter-spacing:0px;word-spacing:0px;writing-mode:lr-tb;text-anchor:middle;fill:#545454;fill-opacity:1;stroke:none;stroke-width:1px;stroke-linecap:butt;stroke-linejoin:miter;stroke-opacity:1"
       id="path4236"
       inkscape:connector-curvature="0" /><path
       d="m 572.57664,-16.831134 25.44764,0 0,9.1386664 q 5.20201,-6.3267644 10.54461,-8.4356804 5.34259,-2.249525 12.51292,-2.249525 7.59211,0 12.93472,2.530714 5.48319,2.390105 9.27924,6.8891414 3.0931,3.6554557 4.21785,8.15449174 1.12476,4.49902246 1.12476,10.26340856 l 0,45.8338723 -25.44764,0 0,-36.41403 q 0,-5.342603 -0.84358,-8.576276 -0.70297,-3.3742664 -2.67129,-5.3426024 -1.68714,-1.6871334 -3.79605,-2.3901056 -2.10893,-0.7029723 -4.49904,-0.7029723 -6.46736,0 -9.98222,3.9366446 -3.37428,3.7960638 -3.37428,10.9663947 l 0,38.522947 -25.44764,0 0,-72.125089 z"
       style="font-style:normal;font-variant:normal;font-weight:bold;font-stretch:normal;font-size:103.08018494px;line-height:125%;font-family:Futura;-inkscape-font-specification:'Futura, Bold';text-align:center;letter-spacing:0px;word-spacing:0px;writing-mode:lr-tb;text-anchor:middle;fill:#545454;fill-opacity:1;stroke:none;stroke-width:1px;stroke-linecap:butt;stroke-linejoin:miter;stroke-opacity:1"
       id="path4238"
       inkscape:connector-curvature="0" /><circle
       stroke-miterlimit="10"
       cx="326.14948"
       cy="18.732269"
       r="29.177988"
       id="circle4161"
       style="fill:none;stroke:#f5a252;stroke-width:20.31909943;stroke-miterlimit:10;stroke-dasharray:none" /></g></svg>