<?xml version="1.0" encoding="UTF-8" standalone="no"?>
<svg
   xmlns:dc="http://purl.org/dc/elements/1.1/"
   xmlns:cc="http://creativecommons.org/ns#"
   xmlns:rdf="http://www.w3.org/1999/02/22-rdf-syntax-ns#"
   xmlns:svg="http://www.w3.org/2000/svg"
   xmlns="http://www.w3.org/2000/svg"
   xmlns:sodipodi="http://sodipodi.sourceforge.net/DTD/sodipodi-0.dtd"
   xmlns:inkscape="http://www.inkscape.org/namespaces/inkscape"
   version="1.1"
   id="Layer_1"
   x="0px"
   y="0px"
   width="920"
   height="680"
   viewBox="0 0 920.00002 679.99998"
   enable-background="new 0 0 212.118 65.883"
   xml:space="preserve"
   inkscape:version="0.91 r13725"
   sodipodi:docname="logo_th_920x680.svg"
   inkscape:export-filename="/Users/bussonniermatthias/dev/binderify/images/logo_th_920x680.png"
   inkscape:export-xdpi="90"
   inkscape:export-ydpi="90"><metadata
     id="metadata35"><rdf:RDF><cc:Work
         rdf:about=""><dc:format>image/svg+xml</dc:format><dc:type
           rdf:resource="http://purl.org/dc/dcmitype/StillImage" /><dc:title></dc:title></cc:Work></rdf:RDF></metadata><defs
     id="defs33" /><sodipodi:namedview
     pagecolor="#ffffff"
     bordercolor="#666666"
     borderopacity="1"
     objecttolerance="10"
     gridtolerance="10"
     guidetolerance="10"
     inkscape:pageopacity="0"
     inkscape:pageshadow="2"
     inkscape:window-width="1241"
     inkscape:window-height="846"
     id="namedview31"
     showgrid="false"
     inkscape:zoom="0.51670086"
     inkscape:cx="321.22438"
     inkscape:cy="347.55284"
     inkscape:window-x="0"
     inkscape:window-y="0"
     inkscape:window-maximized="0"
     inkscape:current-layer="Layer_1"
     showguides="true"
     inkscape:guide-bbox="true"><sodipodi:guide
       position="0,0"
       orientation="1,0"
       id="guide4167"
       inkscape:label=""
       inkscape:color="rgb(0,0,255)" /><sodipodi:guide
       position="920.00002,0"
       orientation="1,0"
       id="guide4169"
       inkscape:label=""
       inkscape:color="rgb(0,0,255)" /><sodipodi:guide
       position="0,679.99998"
       orientation="0,1"
       id="guide4171"
       inkscape:label=""
       inkscape:color="rgb(0,0,255)" /><sodipodi:guide
       position="0,0"
       orientation="0,1"
       id="guide4173"
       inkscape:label=""
       inkscape:color="rgb(0,0,255)" /></sodipodi:namedview><rect
     style="opacity:1;fill:#f3f3f3;fill-opacity:1;stroke:none;stroke-width:20;stroke-linecap:round;stroke-linejoin:round;stroke-miterlimit:4;stroke-dasharray:20, 960;stroke-dashoffset:0;stroke-opacity:1"
     id="rect4163"
     width="920"
     height="680"
     x="0"
     y="0" /><g
     id="g4196"
     transform="matrix(1.3639353,0,0,1.3639353,-127.84706,-198.74195)"><g
       transform="matrix(2.4299833,0,0,2.4299833,176.27202,413.75678)"
       id="g7"><path
         style="fill:#545454"
         inkscape:connector-curvature="0"
         id="path9"
         d="m 50.751,48.727 0,-36.255 7.251,0 0,17.547 c 1.885,-2.32 4.544,-3.094 7.299,-3.094 6.042,0 10.586,5.269 10.586,11.167 0,5.898 -4.543,11.118 -10.585,11.118 -2.755,0 -5.849,-0.87 -7.299,-3.046 l 0,2.562 -7.252,0 z m 12.327,-5.318 c 2.9,0 5.076,-2.514 5.076,-5.317 0,-2.803 -2.175,-5.317 -5.076,-5.317 -2.901,0 -5.076,2.514 -5.076,5.317 0,2.803 2.176,5.317 5.076,5.317 z" /><path
         style="fill:#545454"
         inkscape:connector-curvature="0"
         id="path11"
         d="m 84.35,15.855 c 2.32,0 4.254,1.885 4.254,4.254 0,2.32 -1.934,4.254 -4.254,4.254 -2.369,0 -4.254,-1.934 -4.254,-4.254 0,-2.368 1.885,-4.254 4.254,-4.254 z m -3.626,32.872 0,-21.318 7.251,0 0,21.318 -7.251,0 z" /><path
         style="fill:#545454"
         inkscape:connector-curvature="0"
         id="path13"
         d="m 115.819,48.727 -7.25,0 0,-12.085 c 0,-2.514 -0.967,-3.867 -3.239,-3.867 -2.272,0 -4.061,2.417 -4.061,5.317 l 0,10.635 -7.251,0 0,-21.318 7.251,0 0,2.61 c 1.45,-1.837 3.722,-3.094 6.526,-3.094 5.704,0 8.024,3.916 8.024,9.716 l 0,12.086 z" /><path
         style="fill:#545454"
         inkscape:connector-curvature="0"
         id="path15"
         d="m 144.826,48.727 -7.251,0 0,-2.562 c -1.45,2.176 -4.592,3.046 -7.299,3.046 -6.043,0 -10.587,-5.221 -10.587,-11.118 0,-5.897 4.544,-11.167 10.587,-11.167 2.707,0 5.414,0.773 7.299,3.094 l 0,-17.548 7.251,0 0,36.255 z M 132.499,32.774 c -2.9,0 -5.075,2.514 -5.075,5.317 0,2.803 2.175,5.317 5.075,5.317 2.9,0 5.076,-2.514 5.076,-5.317 0,-2.803 -2.176,-5.317 -5.076,-5.317 z" /><path
         style="fill:#545454"
         inkscape:connector-curvature="0"
         id="path17"
         d="m 173.639,38.962 -16.532,0 c 0,2.466 1.74,5.075 4.592,5.075 2.562,0 4.158,-1.691 4.206,-3.238 l 7.396,0 c -1.256,5.607 -5.801,8.411 -11.456,8.411 -7.348,0 -12.423,-4.351 -12.423,-11.118 0,-6.671 5.269,-11.167 12.423,-11.167 6.478,0 11.843,3.867 11.843,10.683 -10e-4,0.435 -0.049,0.919 -0.049,1.354 z m -6.913,-3.432 c 0,0 -0.338,-3.964 -4.736,-3.964 -4.545,0 -4.786,3.964 -4.786,3.964 l 9.522,0 z" /><path
         style="fill:#545454"
         inkscape:connector-curvature="0"
         id="path19"
         d="m 185.532,38.092 0,10.635 -7.251,0 0,-21.318 7.251,0 0,2.61 c 1.111,-1.595 2.949,-3.094 5.607,-3.094 0.629,0 1.596,0.193 2.176,0.483 l 0,6.574 -0.098,0 c -0.725,-0.87 -1.788,-1.208 -2.9,-1.208 -2.707,0 -4.785,2.756 -4.785,5.318 z" /></g><circle
       style="fill:none;stroke:#f5a252;stroke-width:11.74702549;stroke-miterlimit:10"
       id="circle21"
       r="23.186901"
       cy="471.92816"
       cx="244.01752"
       stroke-miterlimit="10" /><circle
       style="fill:none;stroke:#579aca;stroke-width:11.74702549;stroke-miterlimit:10"
       id="circle23"
       r="23.189331"
       cy="517.02863"
       cx="244.01752"
       stroke-miterlimit="10" /><circle
       style="fill:none;stroke:#e66581;stroke-width:11.74702549;stroke-miterlimit:10"
       id="circle25"
       r="23.189331"
       cy="494.6485"
       cx="221.35065"
       stroke-miterlimit="10" /><path
       style="fill:none;stroke:#579aca;stroke-width:11.74702549;stroke-miterlimit:10"
       inkscape:connector-curvature="0"
       id="path27"
       d="m 225.34796,503.26764 c 1.84436,-2.50531 4.22817,-4.68257 7.09798,-6.33496 11.09531,-6.39086 25.27426,-2.57578 31.66512,8.52195"
       stroke-miterlimit="10" /><path
       style="fill:none;stroke:#f5a252;stroke-width:11.74702549;stroke-miterlimit:10"
       inkscape:connector-curvature="0"
       id="path29"
       d="m 223.92399,483.49973 c -6.39085,-11.0953 -2.57821,-25.27426 8.52195,-31.66754 11.09774,-6.39086 25.27426,-2.57335 31.66512,8.52438"
       stroke-miterlimit="10" /></g><g
     id="g4254"
     transform="translate(-46.448539,0)"><g
       transform="matrix(1.3639353,0,0,1.3639353,-127.84706,-198.74195)"
       id="text4151"
       style="font-style:normal;font-variant:normal;font-weight:bold;font-stretch:normal;font-size:103.08018494px;line-height:125%;font-family:Futura;-inkscape-font-specification:'Futura, Bold';text-align:start;letter-spacing:0px;word-spacing:0px;writing-mode:lr-tb;text-anchor:start;fill:#545454;fill-opacity:1;stroke:none;stroke-width:1px;stroke-linecap:butt;stroke-linejoin:miter;stroke-opacity:1"><path
         inkscape:connector-curvature="0"
         id="path4234"
         style="font-style:normal;font-variant:normal;font-weight:bold;font-stretch:normal;font-size:103.08018494px;line-height:125%;font-family:Futura;-inkscape-font-specification:'Futura, Bold';text-align:center;writing-mode:lr-tb;text-anchor:middle;fill:#545454;fill-opacity:1"
         d="m 450.82942,247.94743 q 0,-2.47392 -0.92773,-4.63861 -0.82464,-2.26776 -2.47392,-3.91704 -1.64928,-1.64929 -3.91705,-2.57701 -2.16468,-1.0308 -4.74169,-1.0308 -2.47392,0 -4.6386,0.92772 -2.16469,0.92772 -3.81397,2.57701 -1.5462,1.64928 -2.57701,3.91704 -0.92772,2.16469 -0.92772,4.63861 0,2.47393 0.92772,4.63861 0.92773,2.16468 2.57701,3.81397 1.64928,1.5462 3.81397,2.577 2.26776,0.92772 4.74168,0.92772 2.47393,0 4.63861,-0.92772 2.16469,-0.92772 3.71089,-2.577 1.64928,-1.64929 2.577,-3.81397 1.03081,-2.16468 1.03081,-4.53553 z m -23.50229,52.67398 -18.65751,0 0,-79.26867 18.65751,0 0,5.87558 q 5.97865,-7.52486 16.28667,-7.52486 5.66941,0 10.51418,2.26777 4.94785,2.16468 8.55566,5.97865 3.6078,3.81396 5.56633,8.96797 2.0616,5.15401 2.0616,11.02958 0,5.87557 -2.0616,10.9265 -1.95853,5.05093 -5.56633,8.8649 -3.50473,3.81396 -8.3495,5.97865 -4.84477,2.16468 -10.51418,2.16468 -9.89569,0 -16.49283,-6.80329 l 0,31.54254 z" /><path
         inkscape:connector-curvature="0"
         id="path4236"
         style="font-style:normal;font-variant:normal;font-weight:bold;font-stretch:normal;font-size:103.08018494px;line-height:125%;font-family:Futura;-inkscape-font-specification:'Futura, Bold';text-align:center;writing-mode:lr-tb;text-anchor:middle;fill:#545454;fill-opacity:1"
         d="m 519.60161,240.11334 q -0.92772,-3.91705 -3.81396,-6.28789 -2.88625,-2.37085 -7.00946,-2.37085 -4.32936,0 -7.11253,2.26777 -2.68008,2.26776 -3.40164,6.39097 l 21.33759,0 z m -21.853,10.82342 q 0,12.06038 11.33882,12.06038 6.08174,0 9.17414,-4.94785 l 18.03903,0 q -5.46325,18.14211 -27.31625,18.14211 -6.70021,0 -12.26654,-1.95852 -5.56633,-2.0616 -9.58645,-5.77249 -3.91705,-3.71089 -6.08174,-8.8649 -2.16468,-5.15401 -2.16468,-11.54498 0,-6.59713 2.0616,-11.85422 2.06161,-5.36017 5.87557,-9.07105 3.81397,-3.71089 9.17414,-5.66942 5.46325,-2.0616 12.26654,-2.0616 6.70022,0 12.06038,2.0616 5.36017,1.95853 9.07106,5.7725 3.71089,3.81396 5.66941,9.38029 1.95852,5.46325 1.95852,12.36962 l 0,1.95853 -39.27355,0 z" /><path
         inkscape:connector-curvature="0"
         id="path4238"
         style="font-style:normal;font-variant:normal;font-weight:bold;font-stretch:normal;font-size:103.08018494px;line-height:125%;font-family:Futura;-inkscape-font-specification:'Futura, Bold';text-align:center;writing-mode:lr-tb;text-anchor:middle;fill:#545454;fill-opacity:1"
         d="m 547.58627,221.35274 18.65751,0 0,6.70022 q 3.81397,-4.63861 7.73102,-6.18481 3.91704,-1.64929 9.17413,-1.64929 5.56633,0 9.48338,1.85545 4.02013,1.75236 6.80329,5.05093 2.26777,2.68008 3.09241,5.97865 0.82464,3.29856 0.82464,7.52485 l 0,33.60414 -18.65751,0 0,-26.69777 q 0,-3.91705 -0.61849,-6.28789 -0.5154,-2.47392 -1.95852,-3.91705 -1.23696,-1.23696 -2.78316,-1.75236 -1.54621,-0.5154 -3.29857,-0.5154 -4.74169,0 -7.31869,2.88624 -2.47393,2.78317 -2.47393,8.04026 l 0,28.24397 -18.65751,0 0,-52.88014 z" /><path
         sodipodi:nodetypes="cccccccccccccc"
         inkscape:connector-curvature="0"
         id="path4240"
         style="font-style:normal;font-variant:normal;font-weight:bold;font-stretch:normal;font-size:103.08018494px;line-height:125%;font-family:Futura;-inkscape-font-specification:'Futura, Bold';text-align:center;writing-mode:lr-tb;text-anchor:middle;fill:#545454;fill-opacity:1"
         d="m 371.53418,350.20298 10.67886,27.83165 11.19427,-27.83165 11.75114,0 11.19426,28.65629 11.29735,-28.65629 20.71911,0 -25.62549,52.88013 -12.4727,0 -11.19426,-28.96553 -10.57578,28.96553 -12.67887,0 -25.11009,-52.88013 z" /><path
         inkscape:connector-curvature="0"
         id="path4252"
         d="m 477.45793,350.20298 0,52.88013 -18.65752,0 0,-52.88013 18.65752,0 z"
         style="font-style:normal;font-variant:normal;font-weight:bold;font-stretch:normal;font-size:103.08018494px;line-height:125%;font-family:Futura;-inkscape-font-specification:'Futura, Bold';text-align:center;writing-mode:lr-tb;text-anchor:middle;fill:#545454;fill-opacity:1" /><path
         inkscape:connector-curvature="0"
         id="path4242"
         d="m 457.56345,329.89618 q 0,-2.16468 0.82464,-4.02013 0.82464,-1.95852 2.26777,-3.40164 1.44312,-1.44313 3.29856,-2.26777 1.95853,-0.82464 4.12321,-0.82464 2.16468,0 4.02013,0.82464 1.95852,0.82464 3.40164,2.26777 1.44313,1.44312 2.26777,3.40164 0.82464,1.85545 0.82464,4.02013 0,2.16468 -0.82464,4.12321 -0.82464,1.85544 -2.26777,3.29856 -1.44312,1.44313 -3.40164,2.26777 -1.85545,0.82464 -4.02013,0.82464 -2.16468,0 -4.12321,-0.82464 -1.85544,-0.82464 -3.29856,-2.26777 -1.44313,-1.44312 -2.26777,-3.29856 -0.82464,-1.95853 -0.82464,-4.12321 z"
         style="font-style:normal;font-variant:normal;font-weight:bold;font-stretch:normal;font-size:103.08018494px;line-height:125%;font-family:Futura;-inkscape-font-specification:'Futura, Bold';text-align:center;writing-mode:lr-tb;text-anchor:middle;fill:#e66581;fill-opacity:1" /><path
         inkscape:connector-curvature="0"
         id="path4244"
         style="font-style:normal;font-variant:normal;font-weight:bold;font-stretch:normal;font-size:103.08018494px;line-height:125%;font-family:Futura;-inkscape-font-specification:'Futura, Bold';text-align:center;writing-mode:lr-tb;text-anchor:middle;fill:#545454;fill-opacity:1"
         d="m 511.02986,365.76808 0,37.31503 -18.65751,0 0,-37.31503 -6.18482,0 0,-15.5651 6.18482,0 0,-15.87435 18.65751,0 0,15.87435 10.61726,0 0,15.5651 -10.61726,0 z" /><path
         inkscape:connector-curvature="0"
         id="path4246"
         style="font-style:normal;font-variant:normal;font-weight:bold;font-stretch:normal;font-size:103.08018494px;line-height:125%;font-family:Futura;-inkscape-font-specification:'Futura, Bold';text-align:center;writing-mode:lr-tb;text-anchor:middle;fill:#545454;fill-opacity:1"
         d="m 531.07734,317.52656 18.65751,0 0,39.37663 q 3.81397,-4.63861 7.73101,-6.18481 3.91705,-1.64929 9.17414,-1.64929 9.99878,0 15.04971,5.56633 5.15401,5.46325 5.15401,14.84355 l 0,33.60414 -18.65752,0 0,-26.69777 q 0,-4.02012 -0.61848,-6.49405 -0.61848,-2.47392 -2.0616,-3.81397 -2.47393,-2.16468 -5.97865,-2.16468 -4.74169,0 -7.3187,2.88625 -2.47392,2.78316 -2.47392,8.04025 l 0,28.24397 -18.65751,0 0,-85.55655 z" /></g><circle
       stroke-miterlimit="10"
       cx="372.59802"
       cy="138.73227"
       r="29.177988"
       id="circle4161"
       style="fill:none;stroke:#f5a252;stroke-width:20.31909943;stroke-miterlimit:10;stroke-dasharray:none" /></g></svg>